<mxfile host="app.diagrams.net" modified="2023-12-27T07:21:02.172Z" agent="Mozilla/5.0 (Windows NT 10.0; Win64; x64) AppleWebKit/537.36 (KHTML, like Gecko) Chrome/120.0.0.0 Safari/537.36 Edg/120.0.0.0" etag="h_xQH9PFuIU5kouI5kVQ" version="22.1.12" type="github">
  <diagram name="第 1 页" id="NSmkEDtCtDF-uvX56Uqx">
    <mxGraphModel dx="321" dy="175" grid="0" gridSize="10" guides="1" tooltips="1" connect="1" arrows="1" fold="1" page="1" pageScale="1" pageWidth="827" pageHeight="1169" background="#ffffff" math="0" shadow="0">
      <root>
        <mxCell id="0" />
        <mxCell id="1" parent="0" />
        <mxCell id="F4sre4N7xuV2hEOs9U2o-1" value="" style="ellipse;shape=doubleEllipse;whiteSpace=wrap;html=1;aspect=fixed;fillColor=#FFFFFF;shadow=0;strokeColor=#EA6B66;" vertex="1" parent="1">
          <mxGeometry x="787" y="169" width="22" height="22" as="geometry" />
        </mxCell>
        <mxCell id="F4sre4N7xuV2hEOs9U2o-2" value="" style="ellipse;shape=doubleEllipse;whiteSpace=wrap;html=1;aspect=fixed;fillColor=#000000;shadow=0;strokeColor=#000000;" vertex="1" parent="1">
          <mxGeometry x="791.38" y="173.38" width="13.25" height="13.25" as="geometry" />
        </mxCell>
        <mxCell id="F4sre4N7xuV2hEOs9U2o-11" style="edgeStyle=orthogonalEdgeStyle;rounded=0;orthogonalLoop=1;jettySize=auto;html=1;exitX=1;exitY=0.5;exitDx=0;exitDy=0;entryX=0;entryY=0.5;entryDx=0;entryDy=0;strokeColor=#EA6B66;" edge="1" parent="1" source="F4sre4N7xuV2hEOs9U2o-4" target="F4sre4N7xuV2hEOs9U2o-6">
          <mxGeometry relative="1" as="geometry" />
        </mxCell>
        <mxCell id="F4sre4N7xuV2hEOs9U2o-4" value="進入網站" style="rounded=1;whiteSpace=wrap;html=1;fillColor=#F8E2DF;strokeColor=#DE6560;" vertex="1" parent="1">
          <mxGeometry x="72" y="163" width="70" height="34" as="geometry" />
        </mxCell>
        <mxCell id="F4sre4N7xuV2hEOs9U2o-12" style="edgeStyle=orthogonalEdgeStyle;rounded=0;orthogonalLoop=1;jettySize=auto;html=1;exitX=1;exitY=0.5;exitDx=0;exitDy=0;entryX=0;entryY=0.5;entryDx=0;entryDy=0;strokeColor=#EA6B66;" edge="1" parent="1" source="F4sre4N7xuV2hEOs9U2o-6" target="F4sre4N7xuV2hEOs9U2o-7">
          <mxGeometry relative="1" as="geometry" />
        </mxCell>
        <mxCell id="F4sre4N7xuV2hEOs9U2o-6" value="輸入登錄&lt;br&gt;信息" style="rounded=1;whiteSpace=wrap;html=1;fillColor=#F8E2DF;strokeColor=#DE6560;" vertex="1" parent="1">
          <mxGeometry x="200" y="163" width="70" height="34" as="geometry" />
        </mxCell>
        <mxCell id="F4sre4N7xuV2hEOs9U2o-13" style="edgeStyle=orthogonalEdgeStyle;rounded=0;orthogonalLoop=1;jettySize=auto;html=1;exitX=1;exitY=0.5;exitDx=0;exitDy=0;entryX=0;entryY=0.5;entryDx=0;entryDy=0;strokeColor=#EA6B66;" edge="1" parent="1" source="F4sre4N7xuV2hEOs9U2o-7" target="F4sre4N7xuV2hEOs9U2o-8">
          <mxGeometry relative="1" as="geometry" />
        </mxCell>
        <mxCell id="F4sre4N7xuV2hEOs9U2o-21" style="edgeStyle=orthogonalEdgeStyle;rounded=0;orthogonalLoop=1;jettySize=auto;html=1;exitX=0.5;exitY=1;exitDx=0;exitDy=0;strokeColor=#EA6B66;" edge="1" parent="1" source="F4sre4N7xuV2hEOs9U2o-7" target="F4sre4N7xuV2hEOs9U2o-18">
          <mxGeometry relative="1" as="geometry" />
        </mxCell>
        <mxCell id="F4sre4N7xuV2hEOs9U2o-7" value="登錄驗證" style="rounded=1;whiteSpace=wrap;html=1;fillColor=#F8E2DF;strokeColor=#DE6560;" vertex="1" parent="1">
          <mxGeometry x="320" y="163" width="70" height="34" as="geometry" />
        </mxCell>
        <mxCell id="F4sre4N7xuV2hEOs9U2o-14" style="edgeStyle=orthogonalEdgeStyle;rounded=0;orthogonalLoop=1;jettySize=auto;html=1;exitX=1;exitY=0.5;exitDx=0;exitDy=0;entryX=0;entryY=0.5;entryDx=0;entryDy=0;strokeColor=#EA6B66;" edge="1" parent="1" source="F4sre4N7xuV2hEOs9U2o-8" target="F4sre4N7xuV2hEOs9U2o-9">
          <mxGeometry relative="1" as="geometry" />
        </mxCell>
        <mxCell id="F4sre4N7xuV2hEOs9U2o-8" value="登錄成功" style="rounded=1;whiteSpace=wrap;html=1;fillColor=#F8E2DF;strokeColor=#DE6560;" vertex="1" parent="1">
          <mxGeometry x="443" y="163" width="70" height="34" as="geometry" />
        </mxCell>
        <mxCell id="F4sre4N7xuV2hEOs9U2o-15" style="edgeStyle=orthogonalEdgeStyle;rounded=0;orthogonalLoop=1;jettySize=auto;html=1;exitX=1;exitY=0.5;exitDx=0;exitDy=0;entryX=0;entryY=0.5;entryDx=0;entryDy=0;strokeColor=#EA6B66;" edge="1" parent="1" source="F4sre4N7xuV2hEOs9U2o-9" target="F4sre4N7xuV2hEOs9U2o-10">
          <mxGeometry relative="1" as="geometry" />
        </mxCell>
        <mxCell id="F4sre4N7xuV2hEOs9U2o-9" value="各自進行&lt;br&gt;操作" style="rounded=1;whiteSpace=wrap;html=1;fillColor=#F8E2DF;strokeColor=#DE6560;" vertex="1" parent="1">
          <mxGeometry x="558" y="163" width="70" height="34" as="geometry" />
        </mxCell>
        <mxCell id="F4sre4N7xuV2hEOs9U2o-16" style="edgeStyle=orthogonalEdgeStyle;rounded=0;orthogonalLoop=1;jettySize=auto;html=1;exitX=1;exitY=0.5;exitDx=0;exitDy=0;strokeColor=#EA6B66;" edge="1" parent="1" source="F4sre4N7xuV2hEOs9U2o-10" target="F4sre4N7xuV2hEOs9U2o-1">
          <mxGeometry relative="1" as="geometry" />
        </mxCell>
        <mxCell id="F4sre4N7xuV2hEOs9U2o-10" value="退出" style="rounded=1;whiteSpace=wrap;html=1;fillColor=#F8E2DF;strokeColor=#DE6560;" vertex="1" parent="1">
          <mxGeometry x="675" y="163" width="70" height="34" as="geometry" />
        </mxCell>
        <mxCell id="F4sre4N7xuV2hEOs9U2o-23" style="edgeStyle=orthogonalEdgeStyle;rounded=0;orthogonalLoop=1;jettySize=auto;html=1;exitX=0.5;exitY=0;exitDx=0;exitDy=0;entryX=0.5;entryY=1;entryDx=0;entryDy=0;strokeColor=#EA6B66;" edge="1" parent="1" source="F4sre4N7xuV2hEOs9U2o-17" target="F4sre4N7xuV2hEOs9U2o-6">
          <mxGeometry relative="1" as="geometry" />
        </mxCell>
        <mxCell id="F4sre4N7xuV2hEOs9U2o-17" value="提供錯誤&lt;br&gt;信息" style="rounded=1;whiteSpace=wrap;html=1;fillColor=#F8E2DF;strokeColor=#DE6560;" vertex="1" parent="1">
          <mxGeometry x="200" y="259" width="70" height="34" as="geometry" />
        </mxCell>
        <mxCell id="F4sre4N7xuV2hEOs9U2o-19" style="edgeStyle=orthogonalEdgeStyle;rounded=0;orthogonalLoop=1;jettySize=auto;html=1;exitX=0;exitY=0.5;exitDx=0;exitDy=0;entryX=1;entryY=0.5;entryDx=0;entryDy=0;strokeColor=#EA6B66;" edge="1" parent="1" source="F4sre4N7xuV2hEOs9U2o-18" target="F4sre4N7xuV2hEOs9U2o-17">
          <mxGeometry relative="1" as="geometry" />
        </mxCell>
        <mxCell id="F4sre4N7xuV2hEOs9U2o-18" value="登錄失敗" style="rounded=1;whiteSpace=wrap;html=1;fillColor=#F8E2DF;strokeColor=#DE6560;" vertex="1" parent="1">
          <mxGeometry x="320" y="259" width="70" height="34" as="geometry" />
        </mxCell>
        <mxCell id="F4sre4N7xuV2hEOs9U2o-27" value="" style="edgeStyle=orthogonalEdgeStyle;rounded=0;orthogonalLoop=1;jettySize=auto;html=1;strokeColor=#EA6B66;" edge="1" parent="1" source="F4sre4N7xuV2hEOs9U2o-25" target="F4sre4N7xuV2hEOs9U2o-4">
          <mxGeometry relative="1" as="geometry" />
        </mxCell>
        <mxCell id="F4sre4N7xuV2hEOs9U2o-25" value="" style="ellipse;shape=doubleEllipse;whiteSpace=wrap;html=1;aspect=fixed;fillColor=#000000;shadow=0;strokeColor=#000000;" vertex="1" parent="1">
          <mxGeometry x="19" y="172" width="16" height="16" as="geometry" />
        </mxCell>
      </root>
    </mxGraphModel>
  </diagram>
</mxfile>
